<?xml version="1.0" encoding="UTF-8"?>
<svg id="Calque_2" data-name="Calque 2" xmlns="http://www.w3.org/2000/svg" viewBox="0 0 293.71 205.04">
  <g id="Calque_1-2" data-name="Calque 1">
    <g id="NJlUOG">
      <g>
        <path d="m109.36,123.1c-.3-4.06-.77-7.97-.86-11.89-.26-11.03.08-22.02,1.91-32.96,1.71-10.19,4.13-20.19,7.63-29.9,6.16-17.07,14.26-33.04,26.96-46.32.6-.63,1.28-1.17,2.24-2.04,2.94,3.43,5.93,6.63,8.59,10.09,6.99,9.08,12.33,19.12,16.75,29.67,3.92,9.35,6.98,18.98,9.19,28.88,2.18,9.74,3.71,19.59,3.69,29.59-.02,7.55-.48,15.1-.71,22.65-.05,1.7-.62,2.36-2.51,2.35-23.82-.07-47.65-.05-71.47-.05-.34,0-.69-.04-1.41-.08Z" fill="#fff"/>
        <path d="m103.08,123.05c-1.05.05-1.61.11-2.17.11-27.64,0-55.27,0-82.91.03-1.43,0-2.08-.44-2.74-1.76-5.8-11.56-10.16-23.64-12.95-36.25C.48,76.87-.34,68.4.13,59.86c.12-2.19.15-2.41,2.39-2.01,6.04,1.09,12.15,2,18.04,3.66,12.96,3.65,25,9.47,36.44,16.56,16.35,10.12,30.21,22.91,41.6,38.39,1.5,2.04,2.85,4.18,4.48,6.6Z" fill="#fff"/>
        <path d="m293.62,57.73c.17,9.83.34,19.33-2.03,28.75-3.03,12.09-7.38,23.65-12.72,34.87-.57,1.21-1.2,1.87-2.73,1.86-27.47-.06-54.93-.04-82.4-.04-.68,0-1.36,0-2.55,0,1.48-2.25,2.63-4.18,3.95-5.98,10.17-13.89,22.32-25.75,36.53-35.48,9.78-6.7,20.16-12.26,31.2-16.58,8.97-3.51,18.21-6.06,27.8-7.2.92-.11,1.85-.13,2.95-.2Z" fill="#fff"/>
        <path d="m272.24,134.29c-1.64,2.6-3,5.03-4.63,7.26-3.01,4.12-3.08,4.08-8.2,4.08-26.11-.01-52.22-.04-78.33-.04-21.24,0-42.48.04-63.72.04-21.18,0-42.36-.03-63.54-.04-7.51,0-15.02,0-22.53.06-1.21,0-2.06-.26-2.79-1.34-2.16-3.24-4.44-6.39-6.67-9.58.13-.15.25-.29.38-.44h250.03Z" fill="#fff"/>
        <path d="m39.47,157.63h214.6c.11.15.23.29.34.44-1.77,1.85-3.47,3.78-5.35,5.51-1.36,1.26-2.87,2.44-4.49,3.34-1.21.68-2.7,1.21-4.06,1.21-36.15.06-72.3.05-108.45.05-26.29,0-52.58-.01-78.87.06-2.13,0-3.85-.44-5.35-1.96-2.55-2.57-5.18-5.06-7.76-7.6-.19-.19-.29-.49-.61-1.06Z" fill="#fff"/>
        <path d="m166.78,203.91c.33-5.74.58-10.99.94-16.24.16-2.28.54-4.53.77-6.81.13-1.29.73-1.74,2.07-1.74,13.48.05,26.97.03,40.45.02,5.16,0,10.32,0,15.48,0,.28,0,.56.06.9.3-17.96,13.23-37.66,22.12-60.61,24.45Z" fill="#fff"/>
        <path d="m126.39,203.86c-22.56-2.32-42.07-11.45-60.12-24.19.05-.15.09-.29.14-.44h58.95c1.4,8.16,1.14,16.28,1.03,24.63Z" fill="#fff"/>
        <path d="m128.39,179.21h37.15c-1.43,2.54-2.68,4.88-4.05,7.15-3.79,6.26-8.1,12.15-12.95,17.63-1.01,1.14-1.65,1.56-2.98.18-4.52-4.7-8.3-9.94-11.73-15.45-1.45-2.33-2.84-4.7-4.23-7.06-.41-.69-.72-1.43-1.22-2.45Z" fill="#fff"/>
      </g>
    </g>
  </g>
</svg>