<?xml version="1.0" encoding="UTF-8"?>
<svg id="Calque_2" data-name="Calque 2" xmlns="http://www.w3.org/2000/svg" viewBox="0 0 272.98 185.95">
  <g id="Calque_1-2" data-name="Calque 1">
    <g id="QTTPWT">
      <g>
        <path d="m118.09,21.12c-9.28-2.9-18.54-2.79-27.66.74-9.05,3.51-15.97,9.63-21.05,17.94-5.72-2.97-11.3-5.87-16.99-8.83,2.17-4.03,4.8-7.55,7.77-10.83C69.23,10.15,80.32,3.64,93.6,1.13c3.48-.66,7.1-.76,10.66-.83,4.3-.08,8.61-.08,12.88.86,5.55,1.22,10.86,3.04,15.81,5.79,1.33.74,2.28.69,3.57.01,7.25-3.83,14.94-6.21,23.17-6.79,16.02-1.13,30.31,3.34,42.79,13.38,5.95,4.79,10.83,10.56,14.7,17.4-5.65,2.94-11.24,5.84-16.86,8.76-11.99-17.63-28.23-23.96-49.01-18.73,19.05,26.43,19.11,52.51.07,78.6,11.06,4.56,34.97,3.54,48.48-17.7,5.58,2.86,11.17,5.74,17.21,8.84-2.49,3.27-4.71,6.52-7.27,9.47-8.66,9.97-19.45,16.5-32.37,19.35-14.38,3.17-28.14,1.29-41.17-5.59-1.1-.58-1.92-.59-3.02,0-9.68,5.21-20.04,7.45-31.02,6.94-12.48-.58-23.68-4.71-33.57-12.27-6.41-4.9-11.74-10.83-15.88-17.98,1.31-.7,2.53-1.39,3.78-2.03,3.93-2.02,7.88-4,11.81-6.03,1.04-.54,1.65-.5,2.41.62,5.99,8.86,14.15,14.78,24.56,17.39,7.68,1.93,15.33,1.53,22.9-.85-19.11-26.12-19.01-52.22-.14-78.61Zm16.69,67.8c15.71-15.77,14.95-42.39-.05-56.65-15.65,15.47-14.95,41.65.05,56.65Z" fill="#fff"/>
        <path d="m151.01,137.51c3.97,0,7.86-.04,11.75.05.55.01,1.22.54,1.6,1.02,6.8,8.39,13.56,16.81,20.33,25.22.58.72,1.18,1.43,2.02,2.47v-28.67h12.56v47.08c-3.93,0-7.88.04-11.82-.05-.54-.01-1.17-.6-1.56-1.09-7.13-8.8-14.22-17.63-21.32-26.45-.26-.32-.52-.63-1.01-1.22v28.7h-12.55v-47.05Z" fill="#fff"/>
        <path d="m45.36,137.55h12.54v18.07h18.29v-18.06h12.53v47.01h-12.48v-19.46h-18.31v19.46h-12.57v-47.03Z" fill="#fff"/>
        <path d="m131.73,184.59c-.91-2.38-1.84-4.72-2.68-7.09-.29-.83-.72-1.1-1.6-1.09-5.06.04-10.12.05-15.17,0-.9,0-1.28.3-1.59,1.1-.92,2.4-1.93,4.76-2.9,7.11h-13.29c.75-1.9,1.44-3.69,2.14-5.47,5.24-13.24,10.5-26.47,15.68-39.73.59-1.5,1.3-2.04,2.94-1.96,3.31.15,6.63.13,9.95,0,1.34-.05,1.91.37,2.38,1.6,4.92,12.85,9.91,25.68,14.88,38.51.89,2.29,1.78,4.58,2.72,7.01h-13.45Zm-6.56-17.55c-1.75-5.02-3.41-9.82-5.23-15.04-1.85,5.27-3.53,10.08-5.27,15.04h10.5Z" fill="#fff"/>
        <path d="m209.78,137.56c.6-.03,1.12-.08,1.63-.08,8.53,0,17.06,0,25.73,0v10.15h-14.81v8.13h14.04v10.26h-14.04v8.4h14.82v10.12h-27.37v-46.98Z" fill="#fff"/>
        <path d="m37.22,153.19c-7.91-6.31-15.79-6.39-21.12-.34-4.21,4.78-3.82,13.13.76,17.56,4.97,4.81,14.4,5.28,20.24-1.2.05.45.11.76.12,1.08.01,4.05.05,8.09-.01,12.14,0,.49-.38,1.27-.78,1.42-10.9,4.18-22.21,2.25-30.33-6.64-9.43-10.32-7.65-27.02,3.6-35.3,8.21-6.04,17.07-6.77,26.48-3.43.75.27,1.08.61,1.07,1.46-.04,4.36-.02,8.72-.02,13.27Z" fill="#fff"/>
        <path d="m245.44,137.54h12.43v36.91h15.11v10.1h-27.54v-47.01Z" fill="#fff"/>
      </g>
    </g>
  </g>
</svg>