<?xml version="1.0" encoding="UTF-8"?>
<svg id="Calque_2" data-name="Calque 2" xmlns="http://www.w3.org/2000/svg" viewBox="0 0 282.89 298.17">
  <g id="Calque_1-2" data-name="Calque 1">
    <g id="mj9YoY.tif">
      <g>
        <path d="m137.6,242.74c-2.67,0-5.19.33-7.57-.11-1.69-.31-3.88-1.25-4.68-2.59-16.98-28.72-34.05-57.39-50.55-86.4-9.15-16.1-6.6-30.31,6.5-43.46,7.85-7.88,15.94-15.53,23.61-23.58,9.2-9.66,8.43-20.28-1.85-28.99,5.05-1.94,6.94-5.46,5-10.73,11.16,2.87,18.66,12.66,18.23,26.09-.33,10.19-2.56,20.35-4.24,30.47-1.06,6.38-3.08,12.61-3.89,19-.55,4.35-.48,9.08.72,13.24.99,3.42,4.05,6.24,7.12,9.14,3.33-17.55,12.36-29.76,28.27-36.6,10.76-4.63,21.85-5.59,33.11-2.38,18.46,5.26,32.82,24.8,31.35,43.35-5.66-7.76-12.3-13.18-21.19-15.25-8.93-2.08-17.25-.74-25.07,4.49,17.01-.62,29.9,5.72,36.82,21.6,4.4,10.1,3.5,20.18-2.15,30.65-1.91-22.83-17.09-35.46-34.5-28.41,16.23,3.06,25.79,11.96,27.45,28.01.97,9.34-3.76,19.25-11.43,24.46-.14-1.27-.33-2.3-.34-3.34-.21-15.79-10.5-27.93-25.62-30.18-14.12-2.1-27.8,6.87-32.5,21.41-3.96,12.25-1.14,23.58,4.85,34.44.8,1.45,1.63,2.88,2.43,4.33.07.13.04.32.13,1.35Z" fill="#fff"/>
        <path d="m282.89,241.54c-2.81,0-4.58,0-6.35,0-41.16,0-82.31,0-123.47,0-10.87,0-11.46-.45-15.21-12.03h123.7c-1.29-2.41-2.05-3.96-2.92-5.45-11.23-19.19-22.42-38.39-33.75-57.52-1.86-3.14-2.71-5.98-1.94-9.78.94-4.66.72-9.55,1.08-15.69,19.8,33.78,39.1,66.73,58.87,100.46Z" fill="#fff"/>
        <path d="m0,241.14c21.23-36.22,42.08-71.8,63.21-107.85,1.44,5.64,2.91,10.5,3.8,15.46.27,1.48-.89,3.39-1.76,4.88-13.63,23.36-27.33,46.68-41,70.01-.91,1.55-1.77,3.12-3.25,5.74,2.84,0,4.74,0,6.64,0,25.73,0,51.46.2,77.18-.15,6.04-.08,10.2,1.17,12.3,7.11.54,1.52,1.54,2.87,2.6,4.8H0Z" fill="#fff"/>
        <path d="m203.6,106.2c-5.72-2.44-11.04-4.66-16.31-7.01-1.14-.51-2.45-1.24-3.04-2.25-9.64-16.25-19.17-32.56-28.74-48.86,3.21-2.6,6.14-4.99,9.48-7.7,12.88,21.97,25.69,43.8,38.61,65.82Z" fill="#fff"/>
        <path d="m107.35,23.64c17.11,8.79,35.05,12.45,54.63,12.07-2.34,2.14-4.41,4.72-7.07,6.34-11.8,7.18-24.32,8.35-37.16,3.16-9.52-3.85-13.99-13-10.41-21.56Z" fill="#fff"/>
        <path d="m127.03,256.68v41.49h-8.02v-9.38c-4.19-.62-8.78.03-10.96-1.95-2.68-2.45-4.08-6.98-4.71-10.82-.65-3.97-.17-8.29.63-12.29,1.22-6.15,6.45-8.56,12.45-7.17,3.27.76,6.86.14,10.61.14Zm-7.4,15.48c-.23-2.22-.18-4.94-.9-7.43-.36-1.23-2.13-2.83-3.26-2.83-1.15,0-3.22,1.71-3.29,2.77-.33,5.07-.3,10.19.07,15.26.08,1.1,2.07,2.84,3.19,2.86,1.1.02,2.82-1.62,3.21-2.86.72-2.32.67-4.88.99-7.78Z" fill="#fff"/>
        <path d="m165.68,297.85v-40.92c5.3-.28,10.52-1.06,15.64-.68,4.69.35,7.23,4.06,7.72,8.51.49,4.42.58,8.95.2,13.37-.77,8.97-6.27,12.28-15.33,9.12-.17,3.5-.33,6.85-.5,10.6h-7.72Zm7.46-25.4c.29,2.39.37,5.22,1.1,7.89.28,1.05,2.01,2.36,3.07,2.35,1.07-.01,2.98-1.46,3.04-2.37.35-5.22.44-10.48.15-15.71-.06-1.06-2.14-2.8-3.27-2.79-1.14.01-2.89,1.63-3.26,2.87-.69,2.31-.58,4.87-.84,7.76Z" fill="#fff"/>
        <path d="m36.92,274.14c-3.27,0-5.7,0-8.13,0s-4.9,0-8.19,0c.4,2.63.31,4.81,1.11,6.6,1.15,2.58,3.91,3.06,4.73.3,1.75-5.87,5.81-3.03,9.09-3.71.54,6.27-2.11,10.01-7.59,11.26-7.03,1.61-13.66-.42-14.54-5.83-1.09-6.69-1.1-13.81-.07-20.51.82-5.34,6.16-6.37,11.07-6.34,5,.03,9.4,1.56,10.92,6.82.98,3.39,1.03,7.06,1.61,11.4Zm-8.01-5.38c-1.32-2.83-2.01-4.93-3.26-6.61-.39-.53-3.03-.34-3.41.28-1.06,1.74-1.48,3.87-2.33,6.33h8.99Z" fill="#fff"/>
        <path d="m217.24,272.38c0,1.49.08,2.98-.01,4.46-.55,8.33-4.18,12.01-11.93,12.18-7.79.17-11.61-3.23-12.36-11.63-.35-3.91-.28-7.95.26-11.84.94-6.86,4.85-9.78,12.05-9.7,6.92.08,10.62,3.05,11.71,9.62.38,2.27.34,4.61.5,6.91-.07,0-.14,0-.2,0Zm-8.22.06c-.18-2.49-.03-5.05-.66-7.39-.35-1.29-2.15-3.23-3.03-3.09-1.39.21-3.54,1.85-3.62,3.01-.34,5.07-.25,10.2.16,15.27.08,1.03,2.25,2.71,3.34,2.63,1.14-.09,2.73-1.78,3.09-3.06.64-2.34.52-4.9.72-7.36Z" fill="#fff"/>
        <path d="m100.16,272.11c-.12,1.93-.18,3.42-.31,4.9-.9,10.14-8.48,15.11-17.75,10.91-2.66-1.2-5.29-4.8-5.87-7.72-.99-4.9-.81-10.19-.24-15.22.71-6.32,4.98-9.18,12.06-9.07,6.68.1,10.52,3.1,11.53,9.24.4,2.44.43,4.93.59,6.96Zm-8.24-.09c-.23-2.26-.09-4.69-.84-6.8-.5-1.4-2.34-3.29-3.48-3.22-1.22.07-3.23,2.1-3.33,3.39-.35,4.74-.29,9.55.17,14.28.12,1.24,2.2,2.3,3.38,3.44,1.11-1.22,2.78-2.26,3.22-3.69.71-2.32.62-4.88.88-7.41Z" fill="#fff"/>
        <path d="m138.26,278.06h8.9c.16.18.4.4.59.65,1.07,1.38,2.08,2.83,3.31,4.04.13.12,2.47-1.48,2.37-1.74-.65-1.71-1.34-3.72-2.69-4.78-2.05-1.61-4.69-2.44-6.98-3.77-3.35-1.94-4.79-4.9-4.33-8.79.47-4.05,3.09-6.03,6.69-7.11,8.84-2.66,15.51,1.21,15.14,9.23-3.15-.32-7.09,2.82-8.82-2.85-.18-.59-2.13-.64-3.27-.94-.12,1.32-.84,3.3-.25,3.84,1.67,1.52,3.83,2.55,5.88,3.59,4.16,2.12,8.37,4.7,7.43,9.95-.54,2.99-2.74,6.64-5.28,8.11-4.6,2.67-10.23,2.53-14.56-.84-2.04-1.59-2.56-5.15-4.12-8.59Z" fill="#fff"/>
        <path d="m71.98,268.15h-6.47c-2.38-2.37-4.15-4.14-5.92-5.9-1.01,2.56-2.43,5.04-2.91,7.69-.47,2.56-.29,5.35.21,7.92.34,1.7,1.75,3.19,2.68,4.78,1.31-1.4,2.64-2.78,3.9-4.22.3-.35.35-.91.62-1.68h8.13c-.34,8.56-3.81,12.1-11.8,12.3-7.72.19-11.77-3.29-12.39-11.13-.31-3.95-.35-7.99.08-11.93.8-7.33,5.32-10.54,13.34-10,7.24.48,10.41,3.98,10.51,12.18Z" fill="#fff"/>
        <path d="m126.43,26c.52-1.15.74-1.76,1.06-2.31,4.43-7.59,8.87-15.18,13.84-23.7,5.91,10.07,11.47,19.53,17.44,29.69-11.26.95-21.57-.67-32.34-3.69Z" fill="#fff"/>
        <path d="m278.36,288.26h-7.99c0-6.94.06-13.68-.03-20.42-.03-2.11.95-4.71-2.56-5.6-.55-.14-.73-4.92-.35-5.03,3.28-.95,2.69-3.62,3.28-5.88,1.06-4.07,5.96-6.53,9.95-4.99.81.31,1.78,1.61,1.73,2.4-.07,1.22-.63,3-1.54,3.48-2.94,1.54-3.77,2.37-.28,4.5.93.57.52,3.91.13,5.86-.32,1.61-2.17,3.01-2.23,4.55-.25,6.91-.11,13.84-.11,21.13Z" fill="#fff"/>
        <path d="m247.95,248.06c0,1.91-.16,3.69.06,5.41.13.98.78,1.95,1.37,2.8,1.14,1.64,2.4,3.18,4.53,5.96-5.78-.04-6.24,2.36-6.02,5.52.23,3.3-.25,6.67.17,9.93.22,1.72,1.81,3.22,2.57,4.92.71,1.59,1.14,3.31,1.71,5-9.47,2.42-12.91-.24-12.92-9.16-.01-6.63,0-13.27,0-19.9q0-7.94,8.53-10.48Z" fill="#fff"/>
        <path d="m7.76,288.29H.56v-41.86h7.19v41.86Z" fill="#fff"/>
        <path d="m221.49,256.92h14.88v5.59q-7.15,2.85-7.15,11.17c0,4.77,0,9.54,0,14.55h-7.73v-31.3Z" fill="#fff"/>
        <path d="m256.06,256.65h7.21v31.49h-7.21v-31.49Z" fill="#fff"/>
        <path d="m104.56,66.37c5.82,8.45-5,20.83-12.47,20.56-2.13-.08-4.93-1.93-6.09-3.8-1.95-3.13,1.84-3.36,3.44-4.64,4.95-3.97,9.91-7.94,15.13-12.13Z" fill="#fff"/>
        <path d="m255.89,252.45v-6.23h7.37v6.23h-7.37Z" fill="#fff"/>
      </g>
    </g>
  </g>
</svg>