<?xml version="1.0" encoding="UTF-8"?>
<svg id="Calque_2" data-name="Calque 2" xmlns="http://www.w3.org/2000/svg" viewBox="0 0 301.05 198.54">
  <g id="Calque_1-2" data-name="Calque 1">
    <g id="djDmJX.tif">
      <g>
        <path d="m0,101.48c.63-1.57,1.95-2.39,3.43-2.89,2.48-.86,4.99-1.66,7.53-2.35,8.52-2.3,17.05-4.54,25.58-6.77.58-.15.84-.43,1.05-.96,10.26-25.73,20.53-51.46,30.81-77.18,1.05-2.63,2.49-4.99,4.73-6.78,1.14-.91,2.41-1.58,3.87-1.86,2.86-.54,5.01,1.14,5.17,4.07.09,1.6-.25,3.14-.84,4.61-2.73,6.83-5.51,13.63-8.22,20.46-7.03,17.72-14.04,35.44-21.05,53.17-.09.24-.18.48-.32.86,1.17-.25,2.23-.5,3.3-.71,10.68-2.1,21.36-4.21,32.05-6.28.84-.16,1.24-.5,1.55-1.29,8.73-22.43,17.91-44.68,27.52-66.74,1.14-2.62,2.99-4.22,5.89-4.95,3.49-.87,6.85-2.25,10.28-3.38,2.4-.79,4.81-1.55,7.22-2.29.49-.15,1.02-.18,1.53-.21,2.42-.11,4.02,1.67,3.64,4.35-.28,1.95-.71,3.93-1.41,5.76-4.07,10.68-8.23,21.32-12.38,31.97-4.08,10.45-8.18,20.9-12.27,31.34-.09.23-.16.47-.28.83,1.44-.15,2.74-.29,4.04-.41,2.47-.24,4.93-.56,7.41-.65,1.37-.05,2.8.1,4.13.46,2.51.69,3.62,2.74,3.03,5.29-.49,2.11-1.5,3.86-3.42,5.05-3.89,2.4-6.65,5.93-9.21,9.61-1.58,2.28-3.2,4.5-5.44,6.21-3.33,2.55-7.14,4-11.19,4.89-.84.19-1.28.54-1.59,1.37-11.08,29.43-21.7,59.01-31.6,88.86-.53,1.6-1.32,3.01-3.11,3.46-1.7.42-3.28.03-4.31-1.38-2.34-3.21-5.25-5.82-8.33-8.28-1.83-1.46-3.44-3.13-4.64-5.16-.81-1.36-.95-2.78-.56-4.32,2.88-11.2,6.38-22.21,10.1-33.15,3.78-11.13,7.75-22.21,11.63-33.31.08-.24.16-.48.29-.89-1.06.22-2,.4-2.94.6-11.04,2.42-22.07,4.84-33.11,7.24-.67.15-1.04.43-1.28,1.1-7.42,20.33-14.87,40.64-22.31,60.96-.96,2.63-2.19,5.08-4.38,6.92-1.45,1.22-3.08,2.03-5.05,1.62-1.89-.39-3.15-2.01-3.43-4.2-.28-2.16.17-4.21.89-6.22,6.81-18.98,13.62-37.97,20.44-56.95.12-.34.24-.67.39-1.09-.65-.12-1.25-.23-1.84-.35-3.32-.69-5.98-2.5-8.21-4.97-1.63-1.8-3.19-3.66-4.77-5.51-.76-.89-1.68-1.52-2.79-1.88-.42-.14-.82-.32-1.24-.44-3.19-.87-4.91-3.13-5.87-6.14-.02-.07-.08-.13-.12-.2,0-.31,0-.62,0-.93Z" fill="#fff"/>
        <path d="m215.22,134.92c.9-2.32,1.81-4.65,2.71-6.97,11.34-29.01,23.8-57.54,37.23-85.65,4.08-8.54,8.18-17.08,12.37-25.58,1.05-2.14,2.37-4.18,3.74-6.13,1.66-2.36,3.96-3.92,6.82-4.51,3.01-.62,5.73-2.04,8.57-3.12,2.89-1.11,5.8-2.19,8.92-2.46.79-.07,1.61-.04,2.39.1,1.74.3,2.79,1.58,2.99,3.47.25,2.27-.16,4.49-.68,6.67-5.03,21.45-9.52,43.01-13.92,64.6-4.36,21.38-8.69,42.77-12.97,64.17-3.69,18.47-7.28,36.95-10.91,55.43-.43,2.18-1.52,3.44-3.21,3.56-2.09.14-4-.53-5.24-2.17-2.84-3.77-6.33-6.79-10.13-9.5-.65-.46-1.26-.99-1.87-1.51-1.75-1.49-2.5-3.35-2.14-5.65,1.11-7.01,2.14-14.03,3.33-21.03,1.57-9.26,3.22-18.5,4.9-27.74,1.68-9.21,3.41-18.42,5.17-27.61,1.96-10.24,3.96-20.46,5.98-30.69,1.48-7.46,3.04-14.91,4.56-22.37.04-.2.06-.4-.05-.65-.13.26-.27.52-.4.78-14.32,29.58-27.28,59.75-39.48,90.25-4.64,11.61-9.01,23.34-13.55,35-.49,1.26-1.12,2.52-1.94,3.58-1.5,1.94-3.64,2.07-5.47.44-.65-.58-1.23-1.27-1.67-2.01-1.36-2.28-3.02-4.31-4.84-6.22-1.3-1.37-2.58-2.75-3.84-4.16-2.55-2.85-3.82-6.22-4.21-10.02-.92-8.74-.83-17.49-.32-26.24.36-6.16.8-12.32,1.32-18.47.52-6.2,1.19-12.39,1.79-18.58.55-5.68,1.14-11.36,1.61-17.04.52-6.25.92-12.52,1.37-18.77.02-.25,0-.51-.14-.81-.12.31-.24.62-.35.94-5.32,16.47-10.82,32.88-15.92,49.41-7.62,24.72-14.95,49.52-22.41,74.29-.59,1.97-1.36,3.85-2.67,5.46-.98,1.2-2.14,2.16-3.66,2.62-2.26.68-4.35-.2-5.38-2.33-.99-2.03-.95-4.19-.39-6.29,2.04-7.65,4.09-15.3,6.27-22.91,10.69-37.29,22.32-74.3,34.75-111.04,3.42-10.11,7.17-20.11,10.66-30.2,1.4-4.05,4-6.79,8.03-8.06,4.76-1.5,9.3-3.54,13.91-5.41,2.35-.95,4.8-1.62,7.39-1.37,2.11.2,3.56,1.42,3.66,3.51.13,2.68.14,5.38-.08,8.05-.51,6.38-1.09,12.76-1.82,19.12-.8,7.05-1.76,14.09-2.72,21.12-1.17,8.64-2.45,17.27-3.6,25.92-.93,6.98-1.89,13.97-2.56,20.98-.76,7.91-1.25,15.86-1.78,23.79-.21,3.07-.21,6.14-.31,9.22,0,.26,0,.51,0,.77.05.01.11.02.16.03Z" fill="#fff"/>
        <path d="m128.87,146.9c.85-.77,1.55-1.55,2.39-2.13.99-.67,2.03-1.37,3.16-1.7,2.28-.66,4.05.76,4.18,3.13.09,1.65-.34,3.21-1.2,4.58-1.4,2.23-2.93,4.37-4.45,6.52-.3.42-.41.75-.21,1.25.57,1.46,1.11,2.94,1.63,4.43.42,1.2.69,2.43.37,3.72-.45,1.83-2.11,2.8-3.92,2.26-1.46-.44-2.39-1.48-3.03-2.8-.32-.67-.58-1.36-.9-2.14-.31.25-.57.45-.82.66-2.45,1.99-5.07,3.64-8.23,4.26-6.3,1.24-12.06-2.52-13.44-8.82-1.1-5.03.08-9.67,2.9-13.85,1.47-2.17,3.28-4.12,5-6.11,1.4-1.62,2.9-3.16,4.38-4.71.35-.37.41-.67.28-1.16-.73-2.66-1.56-5.3-2.08-8-1.12-5.91,2.66-11.67,8.41-12.92,3.22-.7,6.23-.05,8.87,1.93,3.25,2.44,4.24,6.28,2.8,10.43-.78,2.25-2.12,4.19-3.51,6.08-1.55,2.1-3.17,4.14-4.79,6.19-.34.42-.47.77-.28,1.32.76,2.27,1.48,4.56,2.21,6.84.07.22.16.42.29.74Zm-8.47-1.37c-1.3,1.96-2.51,3.74-3.66,5.56-.32.51-.53,1.12-.68,1.72-.2.83-.35,1.73.41,2.38.73.62,1.56.4,2.35.09.41-.15.8-.36,1.16-.61.81-.55,1.58-1.16,2.39-1.71.4-.27.41-.56.27-.98-.65-1.87-1.26-3.76-1.89-5.64-.06-.19-.15-.36-.35-.81Zm2.78-16.93c.09.04.18.09.27.13,1.05-1.29,2.13-2.56,3.12-3.89.32-.43.47-1.04.55-1.58.13-.87-.18-1.64-.95-2.14-.78-.52-1.61-.51-2.4-.03-.73.44-1.1,1.14-1.28,1.94-.45,1.95.17,3.75.7,5.57Z" fill="#fff"/>
      </g>
    </g>
  </g>
</svg>