<?xml version="1.0" encoding="UTF-8"?>
<svg id="Calque_2" data-name="Calque 2" xmlns="http://www.w3.org/2000/svg" viewBox="0 0 1377.55 685.65">
  <g id="Calque_1-2" data-name="Calque 1">
    <g id="qrRmpn.tif">
      <g>
        <path d="m1360.89,0c14.33,5.6,19.43,15.85,15.24,30.9-3.06,11-9.03,20.09-18.94,25.96-8.86,5.25-17.93,10.2-27.23,14.63-26.24,12.49-47.06,30.67-60.1,56.86-9.18,18.44-18.69,36.83-26.16,55.98-9.05,23.21-24.61,40.34-44.38,54.41q-10.11,7.19-2.27,16.55c9.37,11.2,13.15,24.9,16.79,38.54,7.34,27.51,10.28,55.62,9.29,84-.8,22.82,8.25,39.84,27.37,51.73,8.08,5.03,12.2,11.87,11.89,21.48-.36,11.15,2.9,21.31,8.99,30.62,2,3.06,4.36,6.06,5.52,9.43,1.07,3.11,2.06,7.28.83,9.96-4.2,9.18-4.52,18.63-3.98,28.33.07,1.33.07,2.66.11,3.99.34,12.09-1.82,13.92-13.94,11.46-11.94-2.43-20.26-9.58-25.69-20.27-5.45-10.75-7.36-22.38-8.08-34.22-.41-6.8-.79-13.7-.08-20.43.89-8.37-1.77-13.86-8.8-18.81-32.95-23.19-58.31-53.42-78.37-88.01-7.13-12.29-12.13-25.84-17.87-38.91-6.85-15.6-13.91-31.03-27.34-42.34-15.37-12.94-32.71-20.68-53.22-20.79-24.89-.12-49.49-2.78-73.54-9.6-27.63-7.84-51.63-21.89-72.24-41.83-9.21-8.91-18.31-17.93-27.75-26.59-6.71-6.16-7.96-5.95-14.32.38-16.97,16.9-37.75,19.14-59.36,13.54-15.02-3.89-29.36-10.5-43.91-16.13-7.28-2.82-14.25-6.46-21.55-9.19-7.7-2.88-10.61-.94-12.22,7.18-.13.65-.19,1.32-.3,1.97-1.9,10.96-7.08,14.53-17.93,11.61-10.14-2.73-17.75-8.98-20.34-19.35-2.48-9.9,1.53-18.39,8.9-25.04,9.71-8.77,21.97-11.3,34.41-13.24,12.06-1.88,23.89-.49,35.66,2.18,8.32,1.88,12.63-1.34,13.38-9.9.85-9.65-2.44-14.53-11.44-17.93-7.31-2.76-14.54-3.34-21.91-.59-9.7,3.62-17.27.96-23.92-6.89-3.7-4.36-8.68-7.65-13.16-11.34-2.56-2.11-5.55-3.78-7.82-6.14-5.31-5.5-4.78-12.98.95-18.02,1-.88,2.02-1.75,3.14-2.46,6.02-3.84,9.48-9.21,9.95-16.39.36-5.53,3.18-9.72,8.12-11.65,11.29-4.42,17.28-13.42,22.38-23.63,6.13-12.28,7.02-12.25,15.58-1.51,6.71,8.42,7.44,8.44,14.35.3,9.99-11.76,11.89-12,18.5,1.74,4.37,9.09,10.04,12.53,20.06,13.78,26.44,3.29,50.41,14.36,73.54,27.11,40.32,22.22,76.14,50.63,110.61,80.85,23.28,20.41,46.32,41.12,73.65,56.24,19.56,10.82,39.58,20.32,61.68,25.1,38.02,8.21,67.33-5.89,91.53-34.23,12.38-14.49,20.62-31.26,28.05-48.61,8.3-19.39,16.34-38.97,26.02-57.69,15.34-29.67,37.76-52.98,67.61-68.6C1341.92,3.78,1347.53,2.12,1352.9,0c2.66,0,5.33,0,7.99,0Z" fill="#fff"/>
        <path d="m0,352.38c1.8-.19,3.6-.55,5.4-.56,58.28-.03,116.57-.04,174.85-.02,21.88,0,33.52,11.72,33.53,33.68,0,60.56,0,121.12,0,181.68,0,21.45-12.01,33.51-33.33,33.51-27.31,0-54.62,0-81.93,0h-6.66v82.9c-1.75.24-2.85.52-3.96.52-28.31.02-56.62.02-84.93,0-.99,0-1.98-.2-2.97-.31,0-110.47,0-220.95,0-331.42Zm91.96,39.25v167.91c3.95,0,7.73,0,11.52,0,13.57-.02,19.06-5.51,19.06-19.11,0-43.25,0-86.5,0-129.75,0-1.99-.01-4.01-.3-5.97-.99-6.72-5.99-12.27-12.66-12.97-5.71-.59-11.54-.12-17.6-.12Z" fill="#fff"/>
        <path d="m580.72,683.84h-91.32v-5.61c0-97.83,0-195.66,0-293.48,0-20.88,11.93-32.91,32.79-32.92,90.09-.04,180.18-.04,270.28,0,20.72,0,32.75,12.24,32.75,33.07,0,97.83,0,195.66,0,293.48v5.33h-91.55c0-2.2,0-4.31,0-6.42,0-88.68,0-177.35,0-266.03,0-2,.08-4-.09-5.99-.61-7.36-6.65-13.2-14.12-13.78-7.71-.6-14.65,4.41-16.16,11.9-.49,2.42-.52,4.96-.52,7.44-.02,88.68-.02,177.35-.02,266.03v6.85h-91.05v-6.39c0-88.51,0-177.02,0-265.53,0-2.16.08-4.34-.1-6.49-.61-7.4-6.57-13.19-14.08-13.81-7.27-.6-14.16,3.93-15.98,10.88-.7,2.69-.79,5.59-.79,8.39-.04,88.68-.03,177.35-.03,266.03v7.06Z" fill="#fff"/>
        <path d="m1069.68,683.88h-91.12v-82.83h-31.1v82.76h-91.27c0-2.09,0-3.88,0-5.66,0-97.82,0-195.64,0-293.47,0-20.83,11.97-32.85,32.85-32.87,49.29-.05,98.58-.05,147.87,0,20.78.02,32.75,12.14,32.76,33.01.02,97.82,0,195.65,0,293.47,0,1.78,0,3.56,0,5.58Zm-91.52-124.56c.09-1.75.21-3.07.21-4.38,0-48.72,0-97.43,0-146.15,0-1,0-2-.07-2.99-.5-6.44-4.7-11.65-10.85-13.5-10.58-3.19-20.08,4.4-20.09,16.25-.04,49.05-.02,98.1,0,147.14,0,1.12.17,2.23.28,3.62h30.53Z" fill="#fff"/>
        <path d="m367,352.04h91.16c.09,1.96.24,3.71.24,5.46.01,98.81.02,197.62,0,296.42,0,19.39-10.91,30.19-30.43,30.2-50.95.02-101.9.02-152.85,0-19.57,0-30.36-10.73-30.37-30.17-.01-98.81,0-197.62,0-296.42,0-1.65,0-3.3,0-5.34h91.24c0,2.12,0,4.2,0,6.28-.02,88.49-.03,176.99-.04,265.48,0,1.99-.08,4.01.16,5.98,1,8.37,7.91,14.47,15.93,14.18,8.26-.29,14.79-7.04,14.83-15.75.1-25.12.07-50.24.08-75.35.02-64.87.03-129.75.05-194.62,0-1.96,0-3.92,0-6.36Z" fill="#fff"/>
        <path d="m1179.38,644.72c.04,22.59-17.91,40.85-40.24,40.93-22.66.08-40.95-18.12-40.99-40.79-.04-22.41,18.27-40.98,40.34-40.93,22.92.06,40.85,17.94,40.89,40.78Zm-74.64.31c.09,19.33,15.49,34.89,34.42,34.79,18.61-.1,33.77-15.77,33.78-34.92.01-19.36-15.26-35-34.2-35.02-18.84-.02-34.1,15.75-34.01,35.15Z" fill="#fff"/>
        <path d="m1133.13,651.62c.37-.14.73-.29,1.1-.43,2.99,3.97,5.98,7.93,8.96,11.9,4.65,6.18,5.89,6.61,14.23,4.55-4.78-6.26-9.44-12.36-14.27-18.69,1.25-.66,1.98-1.01,2.67-1.42,5.46-3.2,7.81-8.03,7.13-14.23-.67-6.09-4.6-9.72-10.25-10.74-5.93-1.07-12.05-1.11-18.09-1.61v47.22h8.51v-16.55Z" fill="#fff"/>
        <path d="m1133.13,651.62v16.55h-8.51v-47.22c6.04.49,12.16.53,18.09,1.61,5.65,1.02,9.58,4.64,10.25,10.74.68,6.2-1.66,11.03-7.13,14.23-.69.41-1.42.76-2.67,1.42,4.83,6.33,9.49,12.43,14.27,18.69-8.34,2.06-9.59,1.63-14.23-4.55-2.98-3.97-5.97-7.93-8.96-11.9-.37.14-.73.29-1.1.43Z" fill="#fff"/>
      </g>
    </g>
  </g>
</svg>