<?xml version="1.0" encoding="UTF-8"?>
<svg id="Calque_2" data-name="Calque 2" xmlns="http://www.w3.org/2000/svg" viewBox="0 0 591.11 71.76">
  <g id="Calque_1-2" data-name="Calque 1">
    <g id="e5Smfn.tif">
      <g>
        <path d="m47.7,41.29c8.16,2.81,11.18,9.14,10.71,17.71-.22,4.11-.04,8.24-.04,12.76h-15.36c0-3.59.07-7.17-.01-10.74-.23-10.62-3.99-14.27-14.63-14.31-2.78,0-5.56,0-8.58,0v-12.12c4.49,0,8.91.07,13.33-.02,7.29-.14,11.26-3.8,11.36-10.35.1-6.51-3.82-10.38-11.11-10.59-6.11-.17-12.22-.04-18.82-.04v45.38H0V1.04c3.88,0,7.66-.01,11.43,0,9.14.04,18.3-.23,27.42.2,16.56.79,26.52,16.71,18.67,30.06-2.22,3.78-6.3,6.49-9.82,9.98Z" fill="#fff"/>
        <path d="m187.91,59.36V1.37h14.61v45.29c5.36,0,10.18.53,14.82-.15,4.8-.7,7.96-6.03,7.45-10.92-.52-4.96-4.5-9.02-9.41-9.4-2.27-.18-4.56-.03-7-.03-.16-1.41-.32-2.2-.32-2.99-.03-2.81-.01-5.61-.01-8.78,9.32-1.01,18.21-1.4,25.24,5.91,5.95,6.19,8.11,13.6,5.93,21.98-2.35,9.02-10.84,15.65-21.32,16.9-1.48.18-2.99.17-4.48.18-8.29.02-16.59,0-25.51,0Z" fill="#fff"/>
        <path d="m341.21,14.18h13.7c2.18,9.32-.84,15.02-11.46,21.08,11.85,4.07,13.78,12.97,12.43,23.85h-14.24c-1.01-5.53,1.12-12.42-5.18-15.64-3.61-1.85-8.04-2.13-13-3.33v18.87h-15.07V1.46h14.7v26.44c9.09,2.16,17.11,2.17,18.12-13.72Z" fill="#fff"/>
        <path d="m378.58,1.02c4.76,0,9.52,0,14.28,0,18.97,0,37.94-.07,56.91.09,2.7.02,5.73.61,8.05,1.93,31.36,17.81,62.63,35.8,93.91,53.76.42.24.74.64.92,1.48-56.33-24.19-113.35-46.22-174.36-55.88.1-.46.19-.92.29-1.38Z" fill="#fff"/>
        <path d="m93.57,41.96c3.39-5.67,6.17-10.32,9.35-15.62-5.26,0-9.88-.46-14.35.12-5.09.67-8.56,5.84-8.2,10.93.38,5.22,4.53,9.49,10.21,9.73,7.14.31,14.3.12,21.45.15,1.78,0,3.55,0,5.57,0v11.14c-12.03,0-24.04,1.15-35.71-.35-10.2-1.31-16.91-12.38-16.29-22.72.62-10.32,8.53-19.99,18.82-20.84,10.86-.9,21.86-.2,32.74-.2,3.78,11.13-3.2,18.66-8.76,26.5-.8,1.13-3.63,1-5.54,1.12-2.76.17-5.54.04-9.29.04Z" fill="#fff"/>
        <path d="m152.92,42.2c3.6-5.99,6.38-10.62,9.51-15.82-5.33,0-9.96-.48-14.45.13-5.09.68-8.4,5.76-8.05,11,.37,5.43,4.56,9.44,10.78,9.67,6.81.26,13.63.07,20.45.08,1.78,0,3.57,0,5.66,0v11.87c-1.58.08-3.17.23-4.76.23-8.15.02-16.3.17-24.45-.05-12.7-.34-22.49-10.34-22.47-22.64.02-12.44,9.62-22.29,22.43-22.62,9.61-.25,19.23-.05,28.59-.05,4.1,11.56-2.28,19.79-8.81,26.99-2.17,2.39-8.68.87-14.45,1.21Z" fill="#fff"/>
        <path d="m274.12,60.89c-16.95-.31-28.53-10.79-28-24.82.32-8.6,4.27-15.32,11.99-19.26,10.09-5.14,20.53-5.08,30.72-.26,8.84,4.19,13.78,14.1,12.24,23.47-1.86,11.31-9.92,18.92-21.81,20.52-1.97.27-3.97.28-5.13.35Zm-12.99-23.87c0,6.66,5.63,12.25,12.4,12.32,6.62.07,12.55-5.61,12.66-12.13.12-6.86-5.69-12.56-12.71-12.47-6.88.09-12.36,5.54-12.35,12.29Z" fill="#fff"/>
        <path d="m460.45,29.92c-5.74,2.84-10.82,4.63-15.07,7.6-8.93,6.24-17.41,13.11-26.13,19.66-1.23.93-2.74,2.07-4.14,2.09-11.12.17-22.24.1-34.58.1,2.26-2.64,3.77-4.68,5.56-6.45,14.27-14.13,32.03-22.25,50.59-28.95.89-.32,2.03-.51,2.91-.26,6.63,1.9,13.22,3.92,20.86,6.22Z" fill="#fff"/>
        <path d="m591.11,0c-20.68,6.38-40.17,12.31-59.6,18.43-5.23,1.64-10.2,4.09-15.44,5.67-2.08.63-4.94.64-6.8-.32-6.92-3.57-13.56-7.66-21.74-12.38,34.82-6.43,68.61-8.78,103.58-11.4Z" fill="#fff"/>
        <path d="m484.89,39.01c-6.27,6.5-12.51,13-18.82,19.44-.51.52-1.45.87-2.19.87-10.24.06-20.47.04-30.71.04-.25-.44-.5-.88-.75-1.32,4.76-4.17,9.39-8.52,14.34-12.46,3.23-2.57,7.19-4.24,10.37-6.86,9.7-8.02,18.91-4.5,27.76.29Z" fill="#fff"/>
      </g>
    </g>
  </g>
</svg>