<?xml version="1.0" encoding="UTF-8"?>
<svg id="Calque_2" data-name="Calque 2" xmlns="http://www.w3.org/2000/svg" viewBox="0 0 343.24 343.21">
  <g id="Calque_1-2" data-name="Calque 1">
    <g>
      <path d="m49.22,193.35c16.31,16.31,32.61,32.61,48.92,48.92,3.69,3.59,7.63,6.96,11,10.83,3.3,3.8,5.25,1.54,7.62-.84,2.4-2.41,4.85-4.1,1.01-7.88-21.45-21.09-42.72-42.38-63.82-63.82-3.2-3.25-4.82-3.07-7.68.12-4.4,4.91-4.6,4.71-.04,9.35,1.04,1.06,2,2.21,2.99,3.31Z" fill="#00987c"/>
      <path d="m253.5,227.3c-2.87-2.24-4.68-6.29-9.2-1.71-21.11,21.38-42.45,42.53-63.68,63.79-1.2,1.21-3.45,2.42-2.08,4.49,1.79,2.71,4.38,4.76,6.88,6.49,2.21-.3,3.07-1.89,4.2-3.02,21.19-21.13,42.31-42.33,63.55-63.41,2.38-2.36,3.65-4.05.33-6.64Z" fill="#00987c"/>
      <path d="m98.83,117.29c22.39-22.78,45.17-44.85,67.42-67.79-2.49-2.24-4.79-4.63-7.43-6.58-2.03-1.5-3.29.55-4.54,1.8-20.71,20.69-41.42,41.39-62.12,62.08-5.19,5.19-5.08,5.09.16,10.36,2.36,2.37,3.95,2.71,6.5.14Z" fill="#00987c"/>
      <path d="m228.39,89.59c-1.09,1.44-2.44,2.74-3.87,3.86-1.93,1.5-1.29,2.5.14,3.93,21.05,21.02,42.02,42.14,63.1,63.13,5.45,5.43,5.44,5.1,11.04-.3,2.55-2.46,2.08-3.77-.19-5.86-3.04-2.8-5.77-5.95-8.63-8.95-2.64-1.99-4.93-4.34-6.97-6.94-16.6-16.06-32.99-32.33-48.98-49-1.92-1.92-3.72-2.42-5.65.12Z" fill="#00987c"/>
      <path d="m294.32,240.04c-19.08-19.2-38.25-38.33-57.46-57.41-6.2-6.16-6.22-6-12.23.58-1.59,1.75-1.69,2.78.01,4.47,21.11,20.96,42.17,41.96,63.19,63.02,1.97,1.98,3.97,2.08,6.29,1.11,2.28-.96,3.99-2.37,3.93-5.12.27-3.06-1.98-4.87-3.74-6.64Z" fill="#00987c"/>
      <path d="m161.07,236.02c5.14-5.18,4.88-5.23-.44-10.68-2.28-2.33-3.62-2.41-5.95.07-19.69,20.21-40.04,39.79-59.97,59.77-1.75,1.74-3.87,3.29-3.59,6.04-.18,2.96,1.15,4.76,3.5,6.18,2.59,1.57,4.54.02,6.13-1.34,20.38-19.7,40.23-40.03,60.33-60.03Z" fill="#00987c"/>
      <path d="m180.83,108.82c-2.53,2.5-3.54,3.96-.43,6.46,2.77,2.23,5.02,7.01,9.09,1.94,4.07-5.07,9.35-8.84,13.72-13.58,4.83-5.24,9.6-10.67,14.83-15.37,11.23-10.09,20.99-21.61,32.19-31.69,1.49-1.34,2.52-3.04,2.8-4.71.12-4.81-4.11-7.63-8.23-5.93-1.92.79-3.21,2.31-4.62,3.72-19.75,19.75-39.44,39.56-59.35,59.16Z" fill="#00987c"/>
      <path d="m70.03,123.08c13.07,13.05,26.11,26.14,39.22,39.15,1.08,1.07,1.45,4.23,3.91,2.38,2.74-2.05,5.24-4.52,7.04-7.48-.91-3.04-3.76-3.92-5.55-5.8-6.83-7.17-13.48-14.57-20.78-21.24-7.07-6.47-13.22-13.78-20.17-20.34-5.76-5.44-11.28-11.14-17.09-16.51-2.75-2.54-5.69-4.49-9.4-.69-3.79,3.89-1.44,6.36,1.25,9.05,7.19,7.16,14.39,14.31,21.57,21.48Z" fill="#00987c"/>
      <path d="m152.8,205.86c5.27,5.3,10.06,11.09,16.1,15.59,4.52,4.22,7.67,9.79,13.04,13.18.28.29.57.57.85.86,5.57,6.52,11.57,12.6,18.17,18.09.82,1.12,1.5,2.73,3.17.92,8.37-7.43,8.4-7.98.58-13.12-.13-.08-.32-.07-.48-.1-.7-.7-1.39-1.39-2.09-2.09-3.82-5.45-8.56-9.98-13.9-13.91-.8-.97-1.6-1.94-2.39-2.91-5.12-3.75-7.84-10-13.59-13.1-9.03-10.59-19.31-19.96-29.33-29.57-3.92-3.76-5.17,1.49-7.42,2.93-2.27,1.45-2.95,3.14-.44,5.51,6.06,5.74,11.85,11.78,17.74,17.71Z" fill="#00987c"/>
      <path d="m270.38,199.52c-2.36,2.23-2.4,3.54.04,5.85,5.75,5.43,5.6,5.58,11.11.08,11.28-11.2,22.38-22.58,33.6-33.85,4.01-2.06,7.02-5.12,9.08-9.12h0s0,0,0,0c5.57-5.46,11.11-10.95,16.72-16.36,6.5-5.7-2.15-14.08-8.05-8.82-3.71,3.22-7.45,6.55-9.89,10.98-3.2.99-4.98,3.56-6.78,6.12-.41.63-.81,1.25-1.22,1.88h0c-3.21.99-4.99,3.56-6.78,6.12-.41.62-.82,1.24-1.23,1.86-3.21.99-4.97,3.59-6.77,6.14-10.52,9.12-19.72,19.59-29.84,29.13Z" fill="#00987c"/>
      <path d="m69.9,146.09c5.85-5.77,5.72-5.64.13-11.42-2.32-2.4-3.65-2.29-5.87.05-5.96,6.26-12.19,12.26-18.27,18.41-14.34,14.69-28.85,29.2-43.53,43.55-2.7,2.67-3.39,5.38-.45,8.54,2.98,3.19,5.93,2.57,8.63.12,5.09-4.74,9.67-10.05,14.67-14.9,1.69-.93,2.94-2.31,3.98-3.9,1.33-1.36,2.66-2.73,3.98-4.09,0,0,0,0,0,0,3.01-2.33,5.65-5.04,8.01-8.01h0c9.57-9.44,19.14-18.89,28.72-28.33Z" fill="#00987c"/>
      <path d="m122.99,167.17c-10.12,10.06-20.3,20.07-30.41,30.14-5.82,5.79-5.74,5.75.39,11.43,1.78,1.65,3.05,2.14,4.97.18,21.51-21.99,43.28-43.72,65.21-65.29.57-.57,1.09-1.3,1.36-2.05,1.51-4.35-2.9-5.31-4.63-7.78-1.62-2.32-3.08-.76-4.41.59-10.83,10.92-21.63,21.87-32.48,32.77Z" fill="#00987c"/>
      <path d="m224.03,172.37c1.05-.79,2.2-1.48,3.12-2.4,8.67-8.71,17.17-17.58,26-26.12,2.84-2.75,2.87-4.33-.02-6.99-5.34-4.92-5.16-5.06-10.28.38-19.96,19.83-39.73,39.88-59.67,59.74-5.67,5.66-5.55,5.54.25,11.27,2.26,2.23,3.4,1.96,5.5-.2,7.03-7.25,14.44-14.14,21.48-21.38,4.59-4.72,9.69-8.96,13.62-14.31Z" fill="#00987c"/>
      <path d="m232.97,269.42c-.45-.45-1.13-.66-1.63-.94-.94-.05-8.37,6.76-8.15,7.52.16.56.68,1.04,1.12,1.48,6.21,6.27,12.36,12.59,18.71,18.71,1.21,1.17,2.56,2.52,5.13,1.34,5.11-2.34,6.66-5.68,2.9-9.89-5.7-6.37-11.99-12.2-18.07-18.23Z" fill="#00987c"/>
      <path d="m93.29,56.24c5.48,5.29,11.07,10.49,16.25,16.07,2.55,2.75,4.28,2.4,6.45-.04,1.21-1.36,2.5-2.66,3.84-3.9,1.1-1.03,1.03-1.88,0-2.89-6.4-6.24-12.68-12.62-19.23-18.69-3.13-3.15-10.29-.85-9.45,4.27-.4,2.15.62,3.71,2.15,5.19Z" fill="#00987c"/>
      <path d="m144.06,16.5c2.63,2.64,4.66,5.9,8.02,7.78,2.38,2.38,4.77,4.77,7.15,7.15,2,2.61,4.16,5.05,6.78,7.06,1.76,2.25,3.65,4.37,6.04,5.98,7.4,7.53,14.75,15.11,22.22,22.56,9.84,9.83,7.39,9.52,16.55-.16-2.59-2.79-5.19-5.58-7.78-8.37-11.31-11.05-22.63-22.09-33.91-33.17-1.08-3.12-4.81-3.87-6.07-6.82-3-2.99-6-5.98-9.01-8.97-2.62-2.49-5.21-5-7.85-7.46-2.66-2.48-6.15-2.66-8.38-.44-2.51,2.49-3.03,6.17.13,9.17,2.02,1.92,4.07,3.8,6.11,5.7Z" fill="#00987c"/>
      <path d="m9.16,153.3c3,3,6,6,8.99,9,4.58,2.23,8.61.57,10.33-4.11.42-1.15.95-2.03-.13-3.1-5.94-5.94-11.68-12.09-17.84-17.79-2.38-2.2-5.93-2.43-8.49.03-2.63,2.52-2.52,5.6,0,8.36,2.35,2.56,4.76,5.07,7.14,7.6Z" fill="#00987c"/>
      <path d="m196.22,323.28c-1.61-2.44-3.9-4.2-6.09-6.05-15.03-15.04-29.92-30.24-44.98-45.25-4.66-4.65-4.47-4.18-9.27-.11-5.14,4.36-1.01,6.59,1.35,9.44,10.46,10.37,20.75,20.93,31.47,31.03,3.98,3.75,6.84,8.82,12.2,11.07.22,2.8,3.14,3.65,4.2,5.84,3.02,3.02,6.04,6.04,9.06,9.06.98.87,2.08,1.64,2.91,2.64,3.07,3.68,6.17,2.25,8.89-.18,2.89-2.58,2.47-5.52-.19-8.16-3.16-3.13-6.36-6.22-9.55-9.32Z" fill="#00987c"/>
      <path d="m189.03,151.47c.93,1.76,2.4,3,3.95,4.17,2.35,2.28,4.69,4.56,7.04,6.84.36.98.89,1.75,2.06,1.8,4.61.27,6.02-3.91,8.64-6.35.86-.81-.24-1.81-.93-2.46-3.9-3.68-7.33-7.88-11.73-11.03-.34-.34-.68-.68-1.02-1.03-7.13-8.18-14.78-15.84-22.97-22.97-9.67-10.92-20.43-20.77-30.62-31.18-3.99-4.08-5.31.44-7.44,1.9-2.46,1.7-4.13,3.75-1.06,6.75,11.74,11.44,23.36,23.01,35.02,34.53,5.85,6.84,12.64,12.75,19.05,19.03Z" fill="#00987c"/>
      <path d="m339.1,195.19c-5.2-5.3-10.43-10.57-15.58-15.92-1.38-1.43-2.44-1.93-3.91-.12-1.14,1.4-2.47,2.68-3.84,3.86-2.3,1.97-2.24,3.67.06,5.66,2.84,2.46,5.47,5.15,8.19,7.74,1.04,1.58,2.19,3.06,4.02,3.8,2.31.46,2.92,2.61,4.15,4.15,1.5,3.57,4.6,3.83,7.37,2.61,2.63-1.15,4.03-3.77,3.45-6.97-.43-2.34-2.28-3.48-3.91-4.82Z" fill="#00987c"/>
      <path d="m159.95,315.37h0c-1.01-2.64-2.6-2.72-4.41-.86-2.48,2.55-5.42,4.69-7.27,7.83-3.35,3.15-6.84,6.16-10.01,9.49-2.9,3.05-2.88,7.33-.25,9.76,3.29,3.03,6.02,1.29,8.55-1.2,4.96-4.89,9.61-10.14,14.9-14.66,5.08-4.22,1.87-6.92-1.5-10.38Z" fill="#00987c"/>
      <path d="m274.38,118.47c1.51,1.35,2.41,1.7,4.01.06,5.79-5.95,11.74-11.74,17.63-17.59,1.21-1.2,2.3-2.44,2.03-4.27.18-2.73-1.25-4.21-3.49-5.48-2.93-1.65-5.24-.47-7.16,1.38-4.56,4.37-8.87,8.99-13.32,13.48-6.43,6.48-6.41,6.42.3,12.43Z" fill="#00987c"/>
      <path d="m72.03,226.69c-1.81-1.35-3.3-5.09-6-2.57-6.89,6.44-14,12.75-19.82,20.2-2.56,3.28.76,8.16,5.19,8.07,1.47.21,2.61-.67,3.86-1.56,6.38-4.53,10.51-11.43,16.79-16,4-2.91,3.55-5.48-.02-8.14Z" fill="#00987c"/>
      <path d="m191.61,24.38c.56-.59,1.02-1.27,1.53-1.91,4.16-4.02,8.4-7.96,12.44-12.1,5.65-5.64-2.58-14.13-8.26-8.55-4.94,4.65-9.55,9.64-14.29,14.49h0c-1.32,1.23-2.68,2.41-3.94,3.69-1.05,1.07-1.16,2.22-.21,3.53,4.59,6.29,7.33,6.49,12.72.85Z" fill="#00987c"/>
    </g>
  </g>
</svg>